<mxfile host="65bd71144e" modified="2020-11-25T11:24:20.686Z" agent="5.0 (Windows NT 10.0; Win64; x64) AppleWebKit/537.36 (KHTML, like Gecko) Code/1.51.1 Chrome/83.0.4103.122 Electron/9.3.3 Safari/537.36" etag="NHA4rd_ZkvSxjmGJjgD8" version="13.6.5">
    <diagram id="JEU_g-kgLjpfCy-T-OPp" name="ページ1">
        <mxGraphModel dx="422" dy="357" grid="1" gridSize="10" guides="1" tooltips="1" connect="1" arrows="1" fold="1" page="1" pageScale="1" pageWidth="827" pageHeight="1169" math="0" shadow="0">
            <root>
                <mxCell id="0"/>
                <mxCell id="1" parent="0"/>
                <mxCell id="7" style="edgeStyle=orthogonalEdgeStyle;rounded=0;orthogonalLoop=1;jettySize=auto;html=1;" parent="1" source="2" target="5" edge="1">
                    <mxGeometry relative="1" as="geometry"/>
                </mxCell>
                <mxCell id="2" value="開始" style="rounded=1;whiteSpace=wrap;html=1;" parent="1" vertex="1">
                    <mxGeometry x="230" y="10" width="140" height="30" as="geometry"/>
                </mxCell>
                <mxCell id="8" style="edgeStyle=orthogonalEdgeStyle;rounded=0;orthogonalLoop=1;jettySize=auto;html=1;entryX=0.5;entryY=0;entryDx=0;entryDy=0;exitX=1;exitY=0.5;exitDx=0;exitDy=0;" parent="1" source="5" edge="1" target="42">
                    <mxGeometry relative="1" as="geometry">
                        <mxPoint x="530" y="200" as="targetPoint"/>
                        <Array as="points">
                            <mxPoint x="500" y="95"/>
                        </Array>
                        <mxPoint x="420" y="95" as="sourcePoint"/>
                    </mxGeometry>
                </mxCell>
                <mxCell id="9" value="No" style="edgeLabel;html=1;align=center;verticalAlign=middle;resizable=0;points=[];" parent="8" vertex="1" connectable="0">
                    <mxGeometry x="-0.6315" y="3" relative="1" as="geometry">
                        <mxPoint x="-25" y="3" as="offset"/>
                    </mxGeometry>
                </mxCell>
                <mxCell id="11" value="Yes" style="edgeStyle=orthogonalEdgeStyle;rounded=0;orthogonalLoop=1;jettySize=auto;html=1;entryX=0.5;entryY=0;entryDx=0;entryDy=0;" parent="1" source="5" target="10" edge="1">
                    <mxGeometry relative="1" as="geometry"/>
                </mxCell>
                <mxCell id="5" value="&lt;span&gt;現在地の取得を&lt;/span&gt;&lt;br&gt;&lt;span&gt;許可するか&lt;/span&gt;" style="rhombus;whiteSpace=wrap;html=1;" parent="1" vertex="1">
                    <mxGeometry x="220" y="70" width="160" height="50" as="geometry"/>
                </mxCell>
                <mxCell id="14" style="edgeStyle=orthogonalEdgeStyle;rounded=0;orthogonalLoop=1;jettySize=auto;html=1;entryX=0.5;entryY=0;entryDx=0;entryDy=0;" parent="1" source="10" target="12" edge="1">
                    <mxGeometry relative="1" as="geometry"/>
                </mxCell>
                <mxCell id="10" value="lat ← 緯度&lt;br&gt;lon ← 経度" style="rounded=0;whiteSpace=wrap;html=1;" parent="1" vertex="1">
                    <mxGeometry x="230" y="160" width="140" height="30" as="geometry"/>
                </mxCell>
                <mxCell id="18" style="edgeStyle=orthogonalEdgeStyle;rounded=0;orthogonalLoop=1;jettySize=auto;html=1;entryX=0.5;entryY=0;entryDx=0;entryDy=0;" parent="1" source="12" target="13" edge="1">
                    <mxGeometry relative="1" as="geometry"/>
                </mxCell>
                <mxCell id="12" value="openweathermap APIを&lt;br&gt;取得した座標で&lt;br&gt;非同期に叩く" style="rounded=0;whiteSpace=wrap;html=1;" parent="1" vertex="1">
                    <mxGeometry x="230" y="230" width="140" height="60" as="geometry"/>
                </mxCell>
                <mxCell id="19" style="edgeStyle=orthogonalEdgeStyle;rounded=0;orthogonalLoop=1;jettySize=auto;html=1;" parent="1" source="13" target="15" edge="1">
                    <mxGeometry relative="1" as="geometry"/>
                </mxCell>
                <mxCell id="13" value="Jsonデータを取得" style="rounded=0;whiteSpace=wrap;html=1;" parent="1" vertex="1">
                    <mxGeometry x="230" y="330" width="140" height="30" as="geometry"/>
                </mxCell>
                <mxCell id="20" style="edgeStyle=orthogonalEdgeStyle;rounded=0;orthogonalLoop=1;jettySize=auto;html=1;entryX=0.5;entryY=0;entryDx=0;entryDy=0;" parent="1" source="15" target="16" edge="1">
                    <mxGeometry relative="1" as="geometry"/>
                </mxCell>
                <mxCell id="15" value="現在地の今の気温、&lt;br&gt;気圧、天気、&lt;br&gt;天気アイコンを表示" style="rounded=0;whiteSpace=wrap;html=1;" parent="1" vertex="1">
                    <mxGeometry x="230" y="390" width="140" height="80" as="geometry"/>
                </mxCell>
                <mxCell id="21" style="edgeStyle=orthogonalEdgeStyle;rounded=0;orthogonalLoop=1;jettySize=auto;html=1;entryX=0.5;entryY=0;entryDx=0;entryDy=0;" parent="1" source="16" target="17" edge="1">
                    <mxGeometry relative="1" as="geometry"/>
                </mxCell>
                <mxCell id="16" value="一時間毎の気圧の&lt;br&gt;予報データを48時間分、配列に格納" style="rounded=0;whiteSpace=wrap;html=1;" parent="1" vertex="1">
                    <mxGeometry x="230" y="505" width="140" height="80" as="geometry"/>
                </mxCell>
                <mxCell id="26" style="edgeStyle=orthogonalEdgeStyle;rounded=0;orthogonalLoop=1;jettySize=auto;html=1;entryX=0.5;entryY=0;entryDx=0;entryDy=0;" parent="1" source="17" target="23" edge="1">
                    <mxGeometry relative="1" as="geometry"/>
                </mxCell>
                <mxCell id="17" value="現在地の今の気温、&lt;br&gt;気圧、天気、&lt;br&gt;天気アイコンを表示" style="rounded=0;whiteSpace=wrap;html=1;" parent="1" vertex="1">
                    <mxGeometry x="230" y="620" width="140" height="80" as="geometry"/>
                </mxCell>
                <mxCell id="27" style="edgeStyle=orthogonalEdgeStyle;rounded=0;orthogonalLoop=1;jettySize=auto;html=1;entryX=1;entryY=0.5;entryDx=0;entryDy=0;" parent="1" source="23" target="32" edge="1">
                    <mxGeometry relative="1" as="geometry">
                        <mxPoint x="360" y="990" as="targetPoint"/>
                        <Array as="points">
                            <mxPoint x="510" y="785"/>
                            <mxPoint x="510" y="970"/>
                        </Array>
                    </mxGeometry>
                </mxCell>
                <mxCell id="29" value="No" style="edgeLabel;html=1;align=center;verticalAlign=middle;resizable=0;points=[];" parent="27" vertex="1" connectable="0">
                    <mxGeometry x="-0.8795" y="4" relative="1" as="geometry">
                        <mxPoint y="-1" as="offset"/>
                    </mxGeometry>
                </mxCell>
                <mxCell id="30" value="Yes" style="edgeStyle=orthogonalEdgeStyle;rounded=0;orthogonalLoop=1;jettySize=auto;html=1;" parent="1" source="23" edge="1">
                    <mxGeometry x="-0.3333" relative="1" as="geometry">
                        <mxPoint x="300" y="890" as="targetPoint"/>
                        <mxPoint as="offset"/>
                    </mxGeometry>
                </mxCell>
                <mxCell id="23" value="現在からの経過時間を&lt;br&gt;4で割った余りが０" style="rhombus;whiteSpace=wrap;html=1;" parent="1" vertex="1">
                    <mxGeometry x="210" y="740" width="180" height="90" as="geometry"/>
                </mxCell>
                <mxCell id="33" style="edgeStyle=orthogonalEdgeStyle;rounded=0;orthogonalLoop=1;jettySize=auto;html=1;entryX=0.5;entryY=0;entryDx=0;entryDy=0;" parent="1" source="31" target="32" edge="1">
                    <mxGeometry relative="1" as="geometry"/>
                </mxCell>
                <mxCell id="31" value="配列にpush" style="rounded=0;whiteSpace=wrap;html=1;" parent="1" vertex="1">
                    <mxGeometry x="240" y="870" width="120" height="40" as="geometry"/>
                </mxCell>
                <mxCell id="34" style="edgeStyle=orthogonalEdgeStyle;rounded=0;orthogonalLoop=1;jettySize=auto;html=1;entryX=0;entryY=0.5;entryDx=0;entryDy=0;" parent="1" source="32" target="23" edge="1">
                    <mxGeometry relative="1" as="geometry">
                        <mxPoint x="120" y="780" as="targetPoint"/>
                        <Array as="points">
                            <mxPoint x="90" y="970"/>
                            <mxPoint x="90" y="785"/>
                        </Array>
                    </mxGeometry>
                </mxCell>
                <mxCell id="36" style="edgeStyle=orthogonalEdgeStyle;rounded=0;orthogonalLoop=1;jettySize=auto;html=1;entryX=0.5;entryY=0;entryDx=0;entryDy=0;" parent="1" source="32" target="35" edge="1">
                    <mxGeometry relative="1" as="geometry"/>
                </mxCell>
                <mxCell id="32" value="現在からの&lt;br&gt;経過時間++" style="rounded=0;whiteSpace=wrap;html=1;" parent="1" vertex="1">
                    <mxGeometry x="240" y="950" width="120" height="40" as="geometry"/>
                </mxCell>
                <mxCell id="40" style="edgeStyle=orthogonalEdgeStyle;rounded=0;orthogonalLoop=1;jettySize=auto;html=1;" parent="1" source="35" target="38" edge="1">
                    <mxGeometry relative="1" as="geometry"/>
                </mxCell>
                <mxCell id="35" value="配列をグラフの&lt;br&gt;描画関数のデータプロパティに渡す" style="rounded=0;whiteSpace=wrap;html=1;" parent="1" vertex="1">
                    <mxGeometry x="235" y="1020" width="130" height="60" as="geometry"/>
                </mxCell>
                <mxCell id="41" style="edgeStyle=orthogonalEdgeStyle;rounded=0;orthogonalLoop=1;jettySize=auto;html=1;entryX=0;entryY=0.5;entryDx=0;entryDy=0;" parent="1" source="38" target="39" edge="1">
                    <mxGeometry relative="1" as="geometry"/>
                </mxCell>
                <mxCell id="38" value="グラフの描画" style="rounded=0;whiteSpace=wrap;html=1;" parent="1" vertex="1">
                    <mxGeometry x="240" y="1110" width="120" height="40" as="geometry"/>
                </mxCell>
                <mxCell id="39" value="終了" style="rounded=0;whiteSpace=wrap;html=1;" parent="1" vertex="1">
                    <mxGeometry x="410" y="1110" width="120" height="40" as="geometry"/>
                </mxCell>
                <mxCell id="45" style="edgeStyle=orthogonalEdgeStyle;rounded=0;orthogonalLoop=1;jettySize=auto;html=1;exitX=0.5;exitY=1;exitDx=0;exitDy=0;entryX=1;entryY=0.5;entryDx=0;entryDy=0;" edge="1" parent="1" source="42" target="13">
                    <mxGeometry relative="1" as="geometry">
                        <mxPoint x="530" y="350" as="targetPoint"/>
                    </mxGeometry>
                </mxCell>
                <mxCell id="42" value="openweathermap APIを&lt;br&gt;東京の座標で&lt;br&gt;非同期に叩く" style="rounded=0;whiteSpace=wrap;html=1;" vertex="1" parent="1">
                    <mxGeometry x="430" y="230" width="140" height="60" as="geometry"/>
                </mxCell>
            </root>
        </mxGraphModel>
    </diagram>
</mxfile>